<?xml version="1.0" encoding="UTF-8" standalone="no"?>
<svg
   xmlns:dc="http://purl.org/dc/elements/1.1/"
   xmlns:cc="http://creativecommons.org/ns#"
   xmlns:rdf="http://www.w3.org/1999/02/22-rdf-syntax-ns#"
   xmlns:svg="http://www.w3.org/2000/svg"
   xmlns="http://www.w3.org/2000/svg"
   xmlns:sodipodi="http://sodipodi.sourceforge.net/DTD/sodipodi-0.dtd"
   xmlns:inkscape="http://www.inkscape.org/namespaces/inkscape"
   width="210mm"
   height="297mm"
   viewBox="0 0 210 297"
   version="1.1"
   id="svg435"
   inkscape:version="1.0.2 (1.0.2+r75+1)"
   sodipodi:docname="pacman_scene.svg">
  <defs
     id="defs429" />
  <sodipodi:namedview
     id="base"
     pagecolor="#ffffff"
     bordercolor="#666666"
     borderopacity="1.0"
     inkscape:pageopacity="0.0"
     inkscape:pageshadow="2"
     inkscape:zoom="1.4"
     inkscape:cx="284.42907"
     inkscape:cy="112.96905"
     inkscape:document-units="mm"
     inkscape:current-layer="layer1"
     inkscape:document-rotation="0"
     showgrid="false"
     inkscape:window-width="1261"
     inkscape:window-height="974"
     inkscape:window-x="727"
     inkscape:window-y="126"
     inkscape:window-maximized="0" />
  <metadata
     id="metadata432">
    <rdf:RDF>
      <cc:Work
         rdf:about="">
        <dc:format>image/svg+xml</dc:format>
        <dc:type
           rdf:resource="http://purl.org/dc/dcmitype/StillImage" />
        <dc:title />
      </cc:Work>
    </rdf:RDF>
  </metadata>
  <g
     inkscape:label="Layer 1"
     inkscape:groupmode="layer"
     id="layer1">
    <circle
       style="fill:#ffff00;fill-opacity:1;stroke:#000000;stroke-width:2;stroke-linejoin:round;stroke-miterlimit:4;stroke-dasharray:none"
       id="path443"
       sodipodi:type="arc"
       sodipodi:cx="30"
       sodipodi:cy="30"
       sodipodi:rx="25"
       sodipodi:ry="25"
       sodipodi:start="0.73424236"
       sodipodi:end="5.5217983"
       sodipodi:arc-type="slice"
       d="M 48.558465,46.750623 A 25,25 0 0 1 21.185306,53.394469 25,25 0 0 1 5.0023026,30.339298 25,25 0 0 1 20.553597,6.8533919 25,25 0 0 1 48.096994,12.751847 L 30,30 Z" />
    <circle
       style="fill:#ffffff;fill-opacity:1;stroke:#000000;stroke-width:2;stroke-linejoin:round;stroke-miterlimit:4;stroke-dasharray:none"
       id="path1292"
       cx="25.563396"
       cy="15.868979"
       r="3.75" />
    <path
       id="rect986"
       style="fill:#0000ff;stroke:#000000;stroke-width:2;stroke-linejoin:round;stroke-miterlimit:4;stroke-dasharray:none"
       d="m 78.000063,23.638402 c -0.05788,-24.8819934 40.078847,-24.8203927 39.999997,0 v 30 c 0,0 -1.87299,-7.9375 -5,-7.9375 -3.12701,0 -1.87299,7.9375 -5,7.9375 -3.12701,0 -1.87299,-7.9375 -5,-7.9375 -3.127005,0 -1.87299,7.9375 -4.999996,7.9375 -3.127013,0 -1.872987,-7.9375 -5,-7.9375 -3.127013,0 -1.872988,7.9375 -5.000001,7.9375 -3.127013,0 -1.872987,-7.9375 -5,-7.9375 -3.127013,0 -5,7.9375 -5,7.9375 z"
       sodipodi:nodetypes="cccssssssscc" />
    <circle
       style="fill:#ffffff;stroke:#000000;stroke-width:2;stroke-linecap:round;stroke-linejoin:round;stroke-miterlimit:4;stroke-dasharray:none"
       id="path993"
       cx="88.75"
       cy="19.364985"
       r="3.75" />
    <circle
       style="fill:#ffffff;stroke:#000000;stroke-width:2;stroke-linecap:round;stroke-linejoin:round;stroke-miterlimit:4;stroke-dasharray:none"
       id="path993-5"
       cx="106.25"
       cy="19.365"
       r="3.75" />
    <circle
       style="fill:#000000;stroke:#000000;stroke-width:1.97192;stroke-linecap:round;stroke-linejoin:round;stroke-miterlimit:4;stroke-dasharray:none"
       id="path1075"
       cx="90"
       cy="20.344069"
       r="1.5" />
    <circle
       style="fill:#000000;stroke:#000000;stroke-width:1.97192;stroke-linecap:round;stroke-linejoin:round;stroke-miterlimit:4;stroke-dasharray:none"
       id="path1075-3"
       cx="107.5"
       cy="20.344"
       r="1.5" />
  </g>
</svg>
